<?xml version="1.0" encoding="utf-8"?>
<!DOCTYPE svg PUBLIC "-//W3C//DTD SVG 1.1//EN" "http://www.w3.org/Graphics/SVG/1.1/DTD/svg11.dtd">
<svg version="1.1" id="Layer_1" xmlns="http://www.w3.org/2000/svg" xmlns:xlink="http://www.w3.org/1999/xlink" x="0px" y="0px"
	 viewBox="0 0 509.8151 512" enable-background="new 0 0 509.8151 512" xml:space="preserve">
<g>
	<linearGradient id="SVGID_1_" gradientUnits="userSpaceOnUse" x1="254.9075" y1="-7.681592e-009" x2="254.9075" y2="512">
		<stop  offset="0" style="stop-color:#7564FF"/>
		<stop  offset="1" style="stop-color:#9CE0FF"/>
	</linearGradient>
	<path fill="url(#SVGID_1_)" d="M426.0212,512H83.7939C37.7072,512,0,474.2928,0,428.2061V83.7939C0,37.7072,37.7072,0,83.7939,0
		h342.2273c46.0866,0,83.7939,37.7072,83.7939,83.7939v344.4122C509.8151,474.2928,472.1078,512,426.0212,512z"/>
	<path fill="none" stroke="#FFFFFF" stroke-width="18.4827" stroke-miterlimit="10" d="M386.9822,244.063h-0.427
		c1.0198-5.7538,1.5816-11.6659,1.5816-17.7125c0-55.7172-45.1673-100.8848-100.8845-100.8848
		c-47.2678,0-86.9282,32.5128-97.8747,76.391c-8.9497-8.3622-21.1893-13.2496-34.5981-12.37
		c-23.0932,1.515-41.7268,20.3117-43.0368,43.4174c-0.2339,4.1261,0.0748,8.1424,0.86,11.9854
		c-35.9846,5.2468-63.4988,37.5643-60.8257,75.4938c2.6396,37.4548,34.4974,66.1508,72.0451,66.1508h262.2768
		c37.6125,0,69.425-28.8426,71.9543-66.3699C460.8407,278.8084,427.7719,244.063,386.9822,244.063z"/>
</g>
</svg>
